<?xml version="1.0" encoding="utf-8"?>
<!-- Generator: Adobe Illustrator 23.0.1, SVG Export Plug-In . SVG Version: 6.00 Build 0)  -->
<svg version="1.1" id="Layer_1" xmlns="http://www.w3.org/2000/svg" xmlns:xlink="http://www.w3.org/1999/xlink" x="0px"
     y="0px"
     viewBox="0 0 926.08 926.08" style="enable-background:new 0 0 926.08 926.08;" xml:space="preserve">
<style type="text/css">
	.st0{display:none;fill:#0066E8;}
	.st1{fill:#FFFFFF;}
</style>
    <circle class="st0" cx="463.04" cy="463.04" r="350.27"/>
    <g>
	<path class="st1" d="M670.51,455.5c-26.53-0.95-89.73,10.13-89.73,10.13c6.27-27.02,65.13-145.68,65.13-145.68
		c0-20.27-30.4-29.91-30.4-29.91c-27.49,37.15-81.99,182.83-81.99,182.83c-63.2,8.2-133.61,23.15-133.61,23.15l59.82-132.17
		c3.38-14-29.91-26.04-29.91-26.04c-25.09,35.22-74.72,163.52-74.72,163.52c-18.33,3.38-147.17,33.78-147.17,33.78
		c-5.31,17.84,27.49,37.15,27.49,37.15c12.07-5.8,103.24-25.58,103.24-25.58c-12.53,20.27-68.97,210.81-68.97,210.81
		c-2.42,38.11,30.86,33.78,30.86,33.78c22.2-16.4,19.29-46.31,19.29-46.31c-3.38-1.93-3.38-9.64-3.38-9.64
		c4.33-21.71,67.04-198.74,67.04-198.74c24.11-8.2,136.03-22.66,136.03-22.66c-41.25,113.63-49.69,167.39-49.69,167.39
		c22.66,24.6,31.84,15.91,31.84,15.91L564,507.04l129.2-17.22C705.73,475.27,670.51,455.5,670.51,455.5z"/>
        <path class="st1" d="M676.5,166.56c-8.82-3.09-18.46,1.52-21.56,10.34c-3.09,8.79,1.52,18.46,10.34,21.56
		c8.79,3.09,18.44-1.55,21.56-10.34C689.93,179.3,685.29,169.66,676.5,166.56z"/>
        <path class="st1" d="M686.76,137.38c-24.91-8.77-52.21,4.33-60.98,29.24c-3.17,9-3.48,18.28-1.42,26.89l15.42,77.4l0,0l0.26,1.26
		l0,0l0,0l13.67-11.81l46.57-40.2l0,0c1.8-1.39,3.51-2.94,5.11-4.59c1.5-1.55,2.91-3.22,4.2-5c2.66-3.66,4.85-7.76,6.45-12.27
		C724.76,173.45,711.67,146.14,686.76,137.38z M702.85,193.74c-6.21,17.66-25.55,26.94-43.19,20.73
		c-17.66-6.21-26.92-25.55-20.73-43.21c6.21-17.66,25.55-26.92,43.21-20.7C699.78,156.74,709.06,176.08,702.85,193.74z"/>
</g>
</svg>
