<?xml version="1.0" encoding="UTF-8"?>
<svg id="Layer_2" data-name="Layer 2" xmlns="http://www.w3.org/2000/svg" viewBox="0 0 442.9 463.2">
  <g id="Layer_2-2" data-name="Layer 2">
    <g id="Layer_1-2" data-name="Layer 1-2">
      <g id="_Ñëîé_1" data-name=" Ñëîé 1">
        <g>
          <rect x="336.7" width="106.2" height="106.2"/>
          <rect x="336.7" y="138.6" width="106.2" height="324.4"/>
          <path d="m312.8,228.5c-11-100.1-105.2-106.6-105.2-106.6-64.4-10.7-101.4,35.9-101.4,35.9V0H0v463.1h106.2v-195.9c0-21.9,11.6-42.5,31-52.6,9.4-4.9,16.4-5.3,16.4-5.3,26.5-3.8,40.2,8.9,47.2,21.1,4.8,8.4,6.9,18.2,6.9,27.9v204.9h106.2v-222.3c-.3-4.3-.7-8.4-1.1-12.4h0Z"/>
        </g>
      </g>
    </g>
  </g>
</svg>