<?xml version="1.0" encoding="utf-8"?>
<!-- Generator: Adobe Illustrator 27.5.0, SVG Export Plug-In . SVG Version: 6.00 Build 0)  -->
<svg version="1.1" id="Layer_1" xmlns="http://www.w3.org/2000/svg" xmlns:xlink="http://www.w3.org/1999/xlink" x="0px" y="0px"
	 viewBox="0 0 1920 1080" style="enable-background:new 0 0 1920 1080;" xml:space="preserve">
<style type="text/css">
	.st0{fill:#FFFFFF;}
	.st1{fill:#00A577;}
</style>
<g id="Ñëîé_1">
	<g>
		<rect x="362.6" y="325.2" class="st0" width="106.2" height="106.2"/>
		<rect x="362.6" y="463.8" class="st0" width="106.2" height="324.4"/>
		<path class="st1" d="M1124.8,463.8v195.8c0,29.2-22.5,54.9-51.8,55.6c-30,0.8-54.6-23.3-54.6-53.2V463.8H917.7v187.7
			c0,8,0.8,15.7,1.9,23.4c11.3,73.9,74.9,130.6,152,130.6s140.7-56.7,152-130.6c1.2-7.6,1.9-15.4,1.9-23.4V463.8H1124.8z"/>
		<path class="st0" d="M338.6,553.7c-11-100.1-105.2-106.6-105.2-106.6C169,436.4,132,483.1,132,483.1V325.2H25.8v463.1H132V592.4
			c0-21.9,11.6-42.5,31-52.6c9.4-4.9,16.4-5.3,16.4-5.3c26.5-3.8,40.2,8.9,47.2,21.1c4.8,8.4,6.9,18.2,6.9,27.9v204.9h106.2V566.1
			C339.4,561.8,339.1,557.7,338.6,553.7z"/>
		<path class="st1" d="M883.6,500.3c-15.3-50.8-52.8-115.2-144.2-140.8c-23.1-6.5-47.1-9.1-71.1-9.1h-55.6l0,0H504.3v437.9h108.5
			l0,0h47.5c40.7,0,81.2-8.1,118.1-25.3c50.6-23.5,105.9-68.3,115-152.2C894.8,597.9,895.2,538.8,883.6,500.3z M658.9,690.1h-46
			V448.6h54.9c29.3,0,58.2,9.8,80.2,29.3c20.5,18.2,38.4,46.9,37.1,91.5c0,0,0,3.3-0.6,9C777.8,642.2,723,690.1,658.9,690.1z"/>
		<polygon class="st1" points="1427.4,787.2 1555.3,789.4 1437.8,616.8 1539.8,463.8 1425.3,463.8 1361.1,580.6 1351.7,580.6 
			1351.7,327.5 1248.3,327.5 1248.3,788.3 1351.7,788.3 1351.7,662 1360.5,662 		"/>
		<circle class="st1" cx="1698.1" cy="595.3" r="62.6"/>
		<path class="st1" d="M1879.7,620.7c-2.4-94.9-84.2-171.2-184.8-171.2c-102.1,0-184.9,78.5-184.9,175.4
			c0,96.9,82.8,175.4,184.9,175.4c30,0,58.3-6.8,83.3-18.8v7.8h101.6V620.7L1879.7,620.7z M1793.8,622.1c0,0-0.1,0.5-0.4,1.3
			c-1.9,6.6-4.5,13-7.8,19c-6.1,13.3-15.9,32.6-31,56.3c-15.9,25-56.5,73.2-56.5,73.2s-47-57.1-59.5-77.1
			c-11.4-18.2-23.7-41-30-56.5c-2.3-4.9-4.3-9.9-5.8-15.2c-0.2-0.6-0.3-1-0.3-1h0.1c-2.4-8.5-3.8-17.5-3.8-26.8
			c0-54.9,44.5-99.4,99.4-99.4c54.9,0,99.4,44.5,99.4,99.4C1797.5,604.6,1796.1,613.5,1793.8,622.1L1793.8,622.1L1793.8,622.1z"/>
	</g>
</g>
</svg>
