<?xml version="1.0" encoding="utf-8"?>
<!-- Generator: Adobe Illustrator 27.5.0, SVG Export Plug-In . SVG Version: 6.00 Build 0)  -->
<svg version="1.1" id="Layer_2_00000013194838876387162840000012008247380549865099_"
	 xmlns="http://www.w3.org/2000/svg" xmlns:xlink="http://www.w3.org/1999/xlink" x="0px" y="0px" viewBox="0 0 442.9 463.2"
	 style="enable-background:new 0 0 442.9 463.2;" xml:space="preserve">
<style type="text/css">
	.st0{fill:#FFFFFF;}
</style>
<g id="Layer_1-2">
	<g id="_Ñëîé_1">
		<g>
			<rect x="336.7" y="0" class="st0" width="106.2" height="106.2"/>
			<rect x="336.7" y="138.6" class="st0" width="106.2" height="324.4"/>
			<path class="st0" d="M312.8,228.5c-11-100.1-105.2-106.6-105.2-106.6c-64.4-10.7-101.4,35.9-101.4,35.9V0H0v463.1h106.2V267.2
				c0-21.9,11.6-42.5,31-52.6c9.4-4.9,16.4-5.3,16.4-5.3c26.5-3.8,40.2,8.9,47.2,21.1c4.8,8.4,6.9,18.2,6.9,27.9v204.9h106.2V240.9
				C313.6,236.6,313.2,232.5,312.8,228.5L312.8,228.5z"/>
		</g>
	</g>
</g>
</svg>
