<?xml version="1.0" encoding="utf-8"?>
<!-- Generator: Adobe Illustrator 27.5.0, SVG Export Plug-In . SVG Version: 6.00 Build 0)  -->
<svg version="1.1" id="Layer_1" xmlns="http://www.w3.org/2000/svg" xmlns:xlink="http://www.w3.org/1999/xlink" x="0px" y="0px"
	 viewBox="0 0 1920 1080" style="enable-background:new 0 0 1920 1080;" xml:space="preserve">
<style type="text/css">
	.st0{fill:#00A577;}
</style>
<g id="Ñëîé_1">
	<g>
		<rect x="381.7" y="299.6" width="106.2" height="106.2"/>
		<rect x="381.7" y="438.2" width="106.2" height="324.4"/>
		<path class="st0" d="M1144,438.2v195.8c0,29.2-22.5,54.9-51.8,55.6c-30,0.8-54.6-23.3-54.6-53.2V438.2H936.9V626
			c0,8,0.8,15.7,1.9,23.4c11.3,73.9,74.9,130.6,152,130.6s140.7-56.7,152-130.6c1.2-7.6,1.9-15.4,1.9-23.4V438.2H1144z"/>
		<path d="M357.8,528.1c-11-100.1-105.2-106.6-105.2-106.6c-64.4-10.7-101.4,35.9-101.4,35.9V299.6H45v463.1h106.2V566.8
			c0-21.9,11.6-42.5,31-52.6c9.4-4.9,16.4-5.3,16.4-5.3c26.5-3.8,40.2,8.9,47.2,21.1c4.8,8.4,6.9,18.2,6.9,27.9v204.9h106.2V540.5
			C358.6,536.2,358.2,532.1,357.8,528.1z"/>
		<path class="st0" d="M902.8,474.7C887.4,424,850,359.5,758.6,333.9c-23.1-6.5-47.1-9.1-71.1-9.1H632l0,0H523.5v437.9H632l0,0h47.5
			c40.7,0,81.2-8.1,118.1-25.3c50.6-23.5,105.9-68.3,115-152.2C914,572.4,914.4,513.2,902.8,474.7z M678,664.5h-46V423h54.9
			c29.3,0,58.2,9.8,80.2,29.3c20.5,18.2,38.4,46.9,37.1,91.5c0,0,0,3.3-0.6,9C796.9,616.6,742.2,664.5,678,664.5z"/>
		<polygon class="st0" points="1446.6,761.6 1574.5,763.8 1457,591.2 1559,438.2 1444.5,438.2 1380.3,555 1370.8,555 1370.8,301.9 
			1267.5,301.9 1267.5,762.7 1370.8,762.7 1370.8,636.4 1379.7,636.4 		"/>
		<circle class="st0" cx="1717.3" cy="569.7" r="62.6"/>
		<path class="st0" d="M1898.9,595.1c-2.4-94.9-84.2-171.2-184.8-171.2c-102.1,0-184.9,78.5-184.9,175.4
			c0,96.9,82.8,175.4,184.9,175.4c30,0,58.3-6.8,83.3-18.8v7.8H1899V595.1L1898.9,595.1z M1813,596.5c0,0-0.1,0.5-0.4,1.3
			c-1.9,6.6-4.5,13-7.8,19c-6.1,13.3-15.9,32.6-31,56.3c-15.9,25-56.5,73.2-56.5,73.2s-47-57.1-59.5-77.1
			c-11.4-18.2-23.7-41-30-56.5c-2.3-4.9-4.3-9.9-5.8-15.2c-0.2-0.6-0.3-1-0.3-1h0.1c-2.4-8.5-3.8-17.5-3.8-26.8
			c0-54.9,44.5-99.4,99.4-99.4c54.9,0,99.4,44.5,99.4,99.4C1816.7,579,1815.3,588,1813,596.5L1813,596.5L1813,596.5z"/>
	</g>
</g>
</svg>
